<?xml version="1.0" encoding="UTF-8"?>
<svg id="a" xmlns="http://www.w3.org/2000/svg" viewBox="0 0 512 483.39">
  <defs>
    <style>
      path {
        fill: #000;
      }

      @media (prefers-color-scheme: dark) {
        path {
          fill: #FFF;
        }
      }
    </style>
  </defs>
  <path class="b"
    d="M413,262.1c-15.02,16.62-20.49,45.49-7,58.18,33.83,31.93,44.84,77.06,32.22,61.9-17.35-20.85-75.53-32.95-62.48-.22,16.26,40.97,8.53,73.41,1.24,59.56-35.94-67.29-55.12,11.01-91.06,19.25,13.92-50.89-14.91-42.73-44.23-39.01-22.77,2.89-49.79,0-103.77,28.39,7.69-14.38,32.06-31.96,47.78-39.89,4.87-2.45-1.71-5.01-14.04-9.2-35.19-11.95-60.76-14.73-97.16-2.47-2.84,1.02-8.46,2.92-9.33-1.02-5.76-24.2,39.59-42.79,58.25-35.72,60.88,31.71,130.57,43.01,195.68,16.4,57.3-41.48,60.44-113.8,12.47-163.38-.07-.07-.07-.15-.15-.22-12.69-17.93-37.55-38.2-86.1-47.31-49.23-9.2-86.54-.51-111.37,10.31-20.48,8.92-37.71,23.99-50.06,42.61-27.34,41.2-27.97,56.15-41.46,110.1-2.62-5.1-11.45-58.91,9.55-110.52,7.87-19.47-20.49-38.13-32.59-104.25-2.77-15.24,71.37,49.58,80.05,41.92,38.64-34.48,103.09-30.84,106.37-34.05,29.09-25.15,63.5-77.21,71.66-101.34,11.3-33.39,12.69,77.5,13.56,97.98,1.24,31.2,42.21,44.98,69.33,62.19,47.39,30.11,96.16,11.3,151.64-9.26-9.92,36.38-87.49,76.26-99,89.09Z" />
  <path class="b" d="M227.83,315.98c-41.34-4.23-106.37-67.07-57.67-105.2,112.13-97.33,173.88,103.6,57.67,105.2Z" />
</svg>