<?xml version="1.0" encoding="UTF-8"?><svg id="a" xmlns="http://www.w3.org/2000/svg" viewBox="0 0 235.95 77.77"><defs><style>.b{fill:#f2f7fc;stroke-width:0px;}</style></defs><path class="b" d="M0,67.4c2.45-2.09,21.89-20.16,22.47-20.74l.5.5-5.76,5.26c-1.51,1.37-2.66,2.95-3.38,4.61-.79,1.8-1.15,3.17-1.22,4.1,0,1.08-.07,1.58-.07,1.8,0,6.62,4.97,14.04,15.41,14.04,5.47,0,11.02-4.25,12.53-11.38.29-1.22.43-2.38.43-3.46,0-1.37-.07-3.82-1.73-6.7-1.66-2.81-4.39-5.26-8.06-7.27-2.02-1.08-1.94-2.16-1.94-2.74,0-.86.43-2.02,2.09-3.1.79-.5,1.73-.79,2.81-1.01H11.59c1.44-.79,1.8-1.51,1.8-2.38,0-.22.07-.72-.58-1.94-.43-.65-.86-1.3-1.22-1.8-2.81-3.74-3.46-7.63-3.46-10.8,0-1.37-.07-4.32,1.87-8.42.94-2.09,2.23-3.89,3.96-5.54,3.24-3.17,7.85-5.11,13.1-5.11h68.12c1.51,0,3.17,0,4.39-.65,1.22-.79,1.66-1.87,1.66-3.24v-.65c0-.14,0-.36-.07-.58l.79-.22,4.46,24.34-.79.14c-.79-2.95-1.08-5.62-1.87-7.99-1.73-6.62-3.6-10.3-7.27-10.3h-10.01c-5.04,0-6.26,1.94-6.26,6.55v13.03c0,10.01-6.41,13.25-11.81,14.76h23.55c-6.48.76-11.74,5.54-11.74,15.05v14.33c0,5.26,1.3,6.55,6.26,6.55h.43v.79h-25.13v-.79c5.18-.22,6.26-2.09,6.26-7.42v-15.05c0-8.28,7.42-11.88,12.82-12.67h-23.26c6.91-1.37,10.44-4.75,10.44-16.63v-11.09c0-5.4-1.08-7.42-6.26-7.42H27.72c-12.24,0-15.91,11.45-12.1,18,2.02,3.38,4.9,6.19,8.71,8.28,2.52,1.22,2.95,2.81,2.95,3.89,0,.58,0,1.8-1.66,3.02-.79.65-1.87,1.01-3.24,1.15h28.44c-1.94,0-3.46.36-4.54,1.44-.94,1.08-.79,1.94-.79,2.16,0,.79.22,1.58.72,2.38.94,1.94,1.87,3.89,2.45,6.26.58,2.52.5,4.03.5,4.25,0,1.22-.22,2.81-.58,4.61-2.09,9.22-11.09,16.13-20.59,16.13-10.3,0-18.94-5.04-24.41-12.82l-3.17,2.95-.43-.5Z"/><path class="b" d="M132.99,5.33v.86c-3.96,0-4.54,2.23-4.54,3.67,0,.58.07,1.8,1.01,3.74l7.06,13.46c1.37,2.52,2.09,4.25,2.3,5.33.22.94.29,1.73.29,2.3,0,2.02-.94,3.74-4.18,4.82-1.66.5-3.74.86-6.19,1.01h11.09c4.9,0,9.36-2.66,11.38-7.27l9.5-20.02v-.07c.79-1.73.86-2.88.86-3.46,0-1.37-.79-3.53-4.61-3.53v-.86h18.5v.86h-5.11c-4.32,0-6.7,3.1-8.93,7.42l-12.67,26.93h11.69c-9.86.76-14.08,5.63-14.06,15.15v13.36c0,5.11.86,7.42,6.26,7.42v.79h-24.7v-.79c5.4,0,6.26-2.02,6.26-7.42v-20.67c0-3.46,1.44-7.06,5.83-7.06h-23.62c8.42-.58,9.94-4.25,9.94-7.06,0-.94-.14-2.88-1.94-6.41l-7.34-14.26c-2.3-4.61-4.46-7.42-9-7.42l-4.97.02-.16-.88h30.05Z"/><path class="b" d="M171.94,76.47c3.82,0,6.48-2.59,10.22-7.42,2.52-3.46,11.38-13.97,19.44-24.7,2.34-3.06,2.34-3.02,4.51-3.02h-21.94c8.28-.58,9.94-4.03,9.94-7.06,0-.79.07-2.52-1.58-5.98,0-.07-.07-.22-.14-.43l-6.77-14.26c-2.3-4.9-4.46-7.42-10.15-7.42v-.86h24.91v.86c-4.25,0-4.03,1.94-4.03,2.52,0,1.08.5,2.59,1.58,4.9l6.41,13.46c.22.22.14.36.36.58,1.44,3.1,1.94,5.18,1.94,6.84v.58c8.06-10.37,17.28-20.38,18.15-21.24,1.51-1.73,2.09-3.31,2.09-4.39,0-.58,0-3.24-4.25-3.24v-.86h13.32v.86c-4.18,0-7.06,3.89-10.15,7.42-2.09,2.23-4.1,4.61-6.34,7.13-3.82,4.32-8.57,10.01-13.18,15.77-4.05,4.05-6.62,3.82-9.65,4.03h23.62c-5.4.36-6.62,2.23-6.62,4.25,0,.22-.07,1.08.58,3.02l5.11,10.66c1.44,3.1,3.02,6.55,4.97,10.58,2.23,4.82,5.04,7.42,10.15,7.42v.79h-24.92v-.79c3.24,0,4.1-1.22,4.1-2.02v-.5c0-1.15-.72-2.88-1.66-4.9l-.43-.79c-1.22-2.38-4.61-9.79-6.55-13.83-.22-.29-.22-.65-.43-.94l-.43-.86c-.14-.36-.22-.58-.29-.65-1.37-2.81-2.09-4.9-2.3-6.41l-18.51,23.4c-1.44,1.8-1.94,3.38-1.94,4.46,0,.58.07,3.02,4.32,3.02v.79h-13.46v-.79Z"/></svg>